<svg width="32" height="32" viewBox="0 0 32 32" fill="none" xmlns="http://www.w3.org/2000/svg">
<path d="M6.56641 13.8672C9.19141 18.9531 13.0469 22.8086 18.1328 25.4336L21.9883 21.5781C22.5352 21.0312 23.1367 20.8945 23.793 21.168C25.7617 21.8242 27.8398 22.1523 30.0273 22.1523C30.5195 22.1523 30.9297 22.3164 31.2578 22.6445C31.5859 22.9727 31.75 23.3828 31.75 23.875V30.0273C31.75 30.5195 31.5859 30.9297 31.2578 31.2578C30.9297 31.5859 30.5195 31.75 30.0273 31.75C21.8242 31.75 14.7969 28.8516 8.94531 23.0547C3.14844 17.2031 0.25 10.1758 0.25 1.97266C0.25 1.48047 0.414062 1.07031 0.742188 0.742188C1.07031 0.414062 1.48047 0.25 1.97266 0.25H8.125C8.61719 0.25 9.02734 0.414062 9.35547 0.742188C9.68359 1.07031 9.84766 1.48047 9.84766 1.97266C9.84766 4.16016 10.1758 6.23828 10.832 8.20703C11.0508 8.91797 10.9141 9.51953 10.4219 10.0117L6.56641 13.8672Z" fill="white"/>
</svg>
